# xmcd
#
# Track frame offsets: 
#        182
#        16035
#        31145
#        45697
#        61105
#        74382
#        88857
#        102765
#        118265
#        134215
#        147267
#        159720
#        171600
#        186627
#        201145
#        215460
#        229015
#        242360
#        255510
#        270115
#        284712
#        297760
#        311947
#        324862
#
# Disc length: 4531 seconds
#
# Revision: 0
# Processed by: cddbd v1.5.1PL2 Copyright (c) Steve Scherf et al.
# Submitted via: ExactAudioCopy v0.95b3
#
DISCID=6b11b118
DTITLE=Bessie Smith - 1925-1927
DYEAR=1995
DGENRE=Blues
TTITLE0=My Man Blues
TTITLE1=New Gulf Coast Blues
TTITLE2=Florida Bound Blues
TTITLE3=At The Christmas Ball
TTITLE4=I've Been Mistreated And I Don't Like It
TTITLE5=Red Mountain Blues
TTITLE6=Golden Rule Blues
TTITLE7=Lonesome Desert Blues
TTITLE8=Them "Has Been" Blues
TTITLE9=Squeeze Me
TTITLE10=What's The Matter Now?
TTITLE11=I Want Ev'ry Bit Of It
TTITLE12=Jazzbo Brown From Memphis
TTITLE13=The Gin House Blues
TTITLE14=Money Blues
TTITLE15=Baby Doll
TTITLE16=Hard Driving Papa
TTITLE17=Lost Your Head Blues
TTITLE18=Hard Time Blues
TTITLE19=Honey Man Blues
TTITLE20=One And Two Blues
TTITLE21=Young Woman's Blues
TTITLE22=Preachin' The Blues
TTITLE23=Back Water Blues
EXTD=
EXTT0=
EXTT1=
EXTT2=
EXTT3=
EXTT4=
EXTT5=
EXTT6=
EXTT7=
EXTT8=
EXTT9=
EXTT10=
EXTT11=
EXTT12=
EXTT13=
EXTT14=
EXTT15=
EXTT16=
EXTT17=
EXTT18=
EXTT19=
EXTT20=
EXTT21=
EXTT22=
EXTT23=
PLAYORDER=
